<?xml version="1.0" standalone="no"?>
<!DOCTYPE svg PUBLIC "-//W3C//DTD SVG 20010904//EN"
 "http://www.w3.org/TR/2001/REC-SVG-20010904/DTD/svg10.dtd">
<svg version="1.0" xmlns="http://www.w3.org/2000/svg"
 width="512.000000pt" height="522.000000pt" viewBox="0 0 512.000000 522.000000"
 preserveAspectRatio="xMidYMid meet">

<g transform="translate(0.000000,522.000000) scale(0.100000,-0.100000)"
fill="#000000" stroke="none">
<path d="M1335 4641 c-159 -45 -295 -158 -363 -302 -22 -46 -45 -108 -51 -137
-15 -75 -15 -3159 0 -3234 6 -29 29 -91 51 -137 70 -147 213 -263 374 -305 55
-14 195 -16 1214 -16 1019 0 1159 2 1214 16 161 42 304 158 374 305 54 112 62
160 62 357 0 148 -2 171 -20 199 -64 106 -220 99 -283 -12 -7 -12 -14 -92 -17
-190 -6 -188 -14 -219 -77 -281 -75 -75 35 -69 -1253 -69 -1055 0 -1158 1
-1185 17 -44 24 -99 80 -121 124 -18 38 -19 84 -22 1594 -2 1738 -8 1611 69
1690 23 23 59 50 82 61 40 18 85 19 1177 19 1086 0 1137 -1 1176 -19 51 -23
104 -75 129 -127 16 -32 21 -69 25 -209 6 -181 10 -196 60 -239 77 -64 189
-47 240 37 18 28 20 51 20 199 0 197 -8 245 -62 357 -70 147 -213 263 -374
305 -55 14 -194 16 -1220 15 -1067 0 -1164 -2 -1219 -18z"/>
<path d="M3333 3360 c-60 -36 -89 -107 -72 -175 9 -35 40 -71 205 -236 107
-106 194 -197 194 -201 0 -5 -259 -8 -576 -8 -563 0 -577 0 -610 -20 -36 -23
-74 -91 -74 -135 0 -39 35 -106 68 -130 26 -19 45 -20 610 -23 320 -1 582 -6
582 -10 0 -4 -88 -95 -196 -203 -164 -164 -197 -202 -204 -235 -16 -70 18
-147 80 -179 37 -19 113 -19 148 -1 33 18 695 682 711 713 14 28 14 108 0 136
-16 31 -678 695 -711 713 -39 20 -117 18 -155 -6z"/>
</g>
</svg>
